<?xml version="1.0" encoding="UTF-8" standalone="no"?><!DOCTYPE svg PUBLIC "-//W3C//DTD SVG 1.1//EN" "http://www.w3.org/Graphics/SVG/1.1/DTD/svg11.dtd"><svg width="100%" height="100%" viewBox="0 0 256 256" version="1.1" xmlns="http://www.w3.org/2000/svg" xmlns:xlink="http://www.w3.org/1999/xlink" xml:space="preserve" xmlns:serif="http://www.serif.com/" style="fill-rule:evenodd;clip-rule:evenodd;stroke-linecap:round;stroke-linejoin:round;stroke-miterlimit:1.5;"><g><path d="M229.229,212.073l-202.458,0c-5.788,-14.955 -8.771,-31.04 -8.771,-47.291c-0,-66.702 49.289,-120.855 110,-120.855c60.711,-0 110,54.153 110,120.855c0,16.251 -2.983,32.336 -8.771,47.291Z" style="fill:#fff;stroke:#000;stroke-width:33.33px;"/><path d="M229.229,212.073l-202.458,0c-5.788,-14.955 -8.771,-31.04 -8.771,-47.291c-0,-66.702 49.289,-120.855 110,-120.855c60.711,-0 110,54.153 110,120.855c0,16.251 -2.983,32.336 -8.771,47.291Z" style="fill:#fff;"/><path d="M197.899,56.375l-17.759,27.348c-1.447,2.227 -4.429,2.86 -6.656,1.414l-8.069,-5.24c-2.227,-1.446 -2.861,-4.429 -1.415,-6.655l17.76,-27.348c1.446,-2.227 4.428,-2.861 6.655,-1.415l8.07,5.241c2.227,1.446 2.86,4.428 1.414,6.655Z"/><path d="M73.102,46.56l17.76,27.348c1.446,2.227 0.812,5.209 -1.415,6.655l-8.07,5.241c-2.226,1.446 -5.209,0.812 -6.655,-1.415l-17.759,-27.348c-1.447,-2.226 -0.813,-5.209 1.414,-6.655l8.07,-5.24c2.227,-1.446 5.209,-0.813 6.655,1.414Z"/><path d="M28.405,89.438l28.463,15.909c2.318,1.296 3.148,4.229 1.853,6.547l-4.695,8.399c-1.295,2.318 -4.229,3.148 -6.547,1.853l-28.463,-15.909c-2.318,-1.296 -3.148,-4.23 -1.853,-6.547l4.695,-8.4c1.295,-2.317 4.229,-3.147 6.547,-1.852Z"/><path d="M236.484,104.692l-28.465,15.908c-2.318,1.295 -5.251,0.465 -6.547,-1.853l-4.694,-8.399c-1.295,-2.318 -0.465,-5.251 1.853,-6.547l28.464,-15.908c2.318,-1.295 5.252,-0.465 6.547,1.853l4.694,8.399c1.296,2.318 0.465,5.251 -1.852,6.547Z"/><path d="M14.79,207.498l27.397,-10.23c2.487,-0.929 5.261,0.337 6.19,2.824l3.366,9.014c0.928,2.488 -0.337,5.262 -2.825,6.19l-27.396,10.23c-2.488,0.929 -5.261,-0.336 -6.19,-2.824l-3.366,-9.014c-0.929,-2.487 0.337,-5.261 2.824,-6.19Z"/><path d="M233.706,224.733l-27.393,-10.241c-2.487,-0.93 -3.751,-3.704 -2.821,-6.191l3.37,-9.013c0.93,-2.487 3.704,-3.751 6.191,-2.822l27.392,10.242c2.487,0.93 3.751,3.704 2.822,6.191l-3.37,9.013c-0.93,2.487 -3.704,3.751 -6.191,2.821Z"/><path d="M7.938,148.466l32.572,1.538c2.652,0.125 4.704,2.38 4.579,5.033l-0.454,9.611c-0.125,2.652 -2.38,4.704 -5.032,4.579l-32.572,-1.538c-2.653,-0.125 -4.704,-2.38 -4.579,-5.033l0.454,-9.611c0.125,-2.652 2.38,-4.704 5.032,-4.579Z"/><path d="M249.881,170.055l-32.572,1.536c-2.652,0.125 -4.907,-1.927 -5.032,-4.579l-0.454,-9.611c-0.125,-2.653 1.927,-4.908 4.579,-5.033l32.572,-1.536c2.653,-0.125 4.908,1.927 5.033,4.579l0.453,9.612c0.125,2.652 -1.927,4.907 -4.579,5.032Z"/><path d="M137.482,32.517l-0,32.608c-0,2.655 -2.156,4.811 -4.811,4.811l-9.622,0c-2.655,0 -4.811,-2.156 -4.811,-4.811l-0,-32.608c-0,-2.655 2.156,-4.811 4.811,-4.811l9.622,-0c2.655,-0 4.811,2.156 4.811,4.811Z"/></g></svg>