<?xml version="1.0" encoding="UTF-8" standalone="no"?><!DOCTYPE svg PUBLIC "-//W3C//DTD SVG 1.1//EN" "http://www.w3.org/Graphics/SVG/1.1/DTD/svg11.dtd"><svg width="100%" height="100%" viewBox="0 0 256 256" version="1.1" xmlns="http://www.w3.org/2000/svg" xmlns:xlink="http://www.w3.org/1999/xlink" xml:space="preserve" xmlns:serif="http://www.serif.com/" style="fill-rule:evenodd;clip-rule:evenodd;stroke-linecap:round;stroke-linejoin:round;stroke-miterlimit:1.5;"><g><path d="M212.486,35.892l-0,38.875c-0,4.567 -3.708,8.275 -8.276,8.275l-16.55,0c-4.568,0 -8.276,-3.708 -8.276,-8.275l0,-38.875c0,-4.568 3.708,-8.276 8.276,-8.276l16.55,0c4.568,0 8.276,3.708 8.276,8.276Z"/><path d="M57.295,103.951l-26.868,0.288l97.573,-75.627l97.573,75.627l-26.868,-0.288l-0,118.266l-141.41,-0l0,-118.266Z" style="fill:#fff;stroke:#000;stroke-width:33.33px;"/><path d="M57.295,103.951l-26.868,0.288l97.573,-75.627l97.573,75.627l-26.868,-0.288l-0,118.266l-141.41,-0l0,-118.266Z" style="fill:#fff;"/><path d="M152.441,157.617l0,62.546c0,6.745 -5.476,12.221 -12.22,12.221l-24.442,-0c-6.744,-0 -12.22,-5.476 -12.22,-12.221l-0,-62.546c-0,-6.745 5.476,-12.221 12.22,-12.221l24.442,0c6.744,0 12.22,5.476 12.22,12.221Z"/></g></svg>