<?xml version="1.0" encoding="UTF-8" standalone="no"?><!DOCTYPE svg PUBLIC "-//W3C//DTD SVG 1.1//EN" "http://www.w3.org/Graphics/SVG/1.1/DTD/svg11.dtd"><svg width="100%" height="100%" viewBox="0 0 256 256" version="1.1" xmlns="http://www.w3.org/2000/svg" xmlns:xlink="http://www.w3.org/1999/xlink" xml:space="preserve" xmlns:serif="http://www.serif.com/" style="fill-rule:evenodd;clip-rule:evenodd;stroke-linejoin:round;stroke-miterlimit:2;"><g><g><g transform="matrix(236.588,0,0,236.588,4.02533,212.326)"><rect x="0.068" y="-0.71" width="0.139" height="0.71" style="fill:#fff;fill-rule:nonzero;stroke:#000;stroke-width:0.14px;"/></g><g transform="matrix(236.588,0,0,236.588,69.1795,212.326)"></g><g transform="matrix(236.588,0,0,236.588,4.02533,212.326)"><rect x="0.068" y="-0.71" width="0.139" height="0.71" style="fill:#fff;fill-rule:nonzero;"/></g><g transform="matrix(236.588,0,0,236.588,69.1795,212.326)"></g></g><g><g transform="matrix(236.588,0,0,236.588,99.8327,212.326)"><path d="M0.32,0.007c-0.054,0 -0.1,-0.01 -0.139,-0.03c-0.038,-0.021 -0.067,-0.051 -0.087,-0.091c-0.02,-0.039 -0.031,-0.087 -0.031,-0.143l0,-0.195c0,-0.056 0.011,-0.104 0.031,-0.144c0.02,-0.039 0.049,-0.069 0.087,-0.09c0.039,-0.021 0.085,-0.031 0.139,-0.031c0.045,-0 0.085,0.009 0.12,0.029c0.035,0.019 0.064,0.047 0.087,0.083c0.023,0.036 0.039,0.081 0.048,0.133l-0.139,-0c-0.005,-0.024 -0.013,-0.044 -0.024,-0.06c-0.011,-0.017 -0.024,-0.03 -0.04,-0.038c-0.015,-0.009 -0.032,-0.013 -0.052,-0.013c-0.037,-0 -0.066,0.011 -0.087,0.034c-0.021,0.023 -0.031,0.055 -0.031,0.097l0,0.195c0,0.041 0.01,0.074 0.031,0.096c0.021,0.023 0.05,0.035 0.087,0.035c0.03,-0 0.054,-0.01 0.075,-0.029c0.02,-0.02 0.034,-0.047 0.041,-0.083l0.139,0c-0.009,0.052 -0.026,0.096 -0.049,0.133c-0.022,0.036 -0.051,0.064 -0.086,0.084c-0.035,0.019 -0.075,0.028 -0.12,0.028Z" style="fill:#fff;fill-rule:nonzero;stroke:#000;stroke-width:0.14px;"/></g><g transform="matrix(236.588,0,0,236.588,246.199,212.326)"></g><g transform="matrix(236.588,0,0,236.588,99.8327,212.326)"><path d="M0.32,0.007c-0.054,0 -0.1,-0.01 -0.139,-0.03c-0.038,-0.021 -0.067,-0.051 -0.087,-0.091c-0.02,-0.039 -0.031,-0.087 -0.031,-0.143l0,-0.195c0,-0.056 0.011,-0.104 0.031,-0.144c0.02,-0.039 0.049,-0.069 0.087,-0.09c0.039,-0.021 0.085,-0.031 0.139,-0.031c0.045,-0 0.085,0.009 0.12,0.029c0.035,0.019 0.064,0.047 0.087,0.083c0.023,0.036 0.039,0.081 0.048,0.133l-0.139,-0c-0.005,-0.024 -0.013,-0.044 -0.024,-0.06c-0.011,-0.017 -0.024,-0.03 -0.04,-0.038c-0.015,-0.009 -0.032,-0.013 -0.052,-0.013c-0.037,-0 -0.066,0.011 -0.087,0.034c-0.021,0.023 -0.031,0.055 -0.031,0.097l0,0.195c0,0.041 0.01,0.074 0.031,0.096c0.021,0.023 0.05,0.035 0.087,0.035c0.03,-0 0.054,-0.01 0.075,-0.029c0.02,-0.02 0.034,-0.047 0.041,-0.083l0.139,0c-0.009,0.052 -0.026,0.096 -0.049,0.133c-0.022,0.036 -0.051,0.064 -0.086,0.084c-0.035,0.019 -0.075,0.028 -0.12,0.028Z" style="fill:#fff;fill-rule:nonzero;"/></g><g transform="matrix(236.588,0,0,236.588,246.199,212.326)"></g></g><g><g transform="matrix(1,0,0,0.891503,-4.44089e-16,13.0629)"><g transform="matrix(133.865,0,0,133.865,49.7656,128.412)"><path d="M0.053,-0l-0,-0.121l0.243,-0.32c0.011,-0.014 0.02,-0.029 0.026,-0.044c0.006,-0.015 0.009,-0.029 0.009,-0.042l0,-0.001c0,-0.02 -0.006,-0.034 -0.019,-0.045c-0.012,-0.01 -0.029,-0.015 -0.052,-0.015c-0.022,-0 -0.04,0.007 -0.054,0.022c-0.014,0.014 -0.022,0.034 -0.025,0.061l0,0.001l-0.137,-0l-0,-0.001c0.005,-0.067 0.026,-0.12 0.064,-0.157c0.039,-0.037 0.089,-0.055 0.151,-0.055c0.067,-0 0.118,0.016 0.155,0.048c0.036,0.032 0.055,0.078 0.055,0.137l-0,0c-0,0.032 -0.006,0.065 -0.017,0.096c-0.011,0.032 -0.027,0.061 -0.047,0.086l-0.175,0.221l0.243,0l-0,0.129l-0.42,0Z" style="fill:#fff;fill-rule:nonzero;stroke:#000;stroke-width:0.17px;"/></g><g transform="matrix(133.865,0,0,133.865,118.921,128.412)"></g></g><g transform="matrix(1,0,0,0.891503,-4.44089e-16,13.0629)"><g transform="matrix(133.865,0,0,133.865,49.7656,128.412)"><path d="M0.053,-0l-0,-0.121l0.243,-0.32c0.011,-0.014 0.02,-0.029 0.026,-0.044c0.006,-0.015 0.009,-0.029 0.009,-0.042l0,-0.001c0,-0.02 -0.006,-0.034 -0.019,-0.045c-0.012,-0.01 -0.029,-0.015 -0.052,-0.015c-0.022,-0 -0.04,0.007 -0.054,0.022c-0.014,0.014 -0.022,0.034 -0.025,0.061l0,0.001l-0.137,-0l-0,-0.001c0.005,-0.067 0.026,-0.12 0.064,-0.157c0.039,-0.037 0.089,-0.055 0.151,-0.055c0.067,-0 0.118,0.016 0.155,0.048c0.036,0.032 0.055,0.078 0.055,0.137l-0,0c-0,0.032 -0.006,0.065 -0.017,0.096c-0.011,0.032 -0.027,0.061 -0.047,0.086l-0.175,0.221l0.243,0l-0,0.129l-0.42,0Z" style="fill:#fff;fill-rule:nonzero;"/></g><g transform="matrix(133.865,0,0,133.865,118.921,128.412)"></g></g></g></g></svg>