<?xml version="1.0" encoding="UTF-8" standalone="no"?><!DOCTYPE svg PUBLIC "-//W3C//DTD SVG 1.1//EN" "http://www.w3.org/Graphics/SVG/1.1/DTD/svg11.dtd"><svg width="100%" height="100%" viewBox="0 0 256 256" version="1.1" xmlns="http://www.w3.org/2000/svg" xmlns:xlink="http://www.w3.org/1999/xlink" xml:space="preserve" xmlns:serif="http://www.serif.com/" style="fill-rule:evenodd;clip-rule:evenodd;stroke-linecap:round;stroke-linejoin:round;stroke-miterlimit:1.5;"><g><g><path d="M34.986,87.587l0,80.826c0,2.36 -1.916,4.276 -4.276,4.276l-8.553,0c-2.36,0 -4.277,-1.916 -4.277,-4.276l0,-80.826c0,-2.36 1.917,-4.276 4.277,-4.276l8.553,-0c2.36,-0 4.276,1.916 4.276,4.276Z" style="fill:#fff;stroke:#000;stroke-width:33.33px;"/><path d="M34.986,87.587l0,80.826c0,2.36 -1.916,4.276 -4.276,4.276l-8.553,0c-2.36,0 -4.277,-1.916 -4.277,-4.276l0,-80.826c0,-2.36 1.917,-4.276 4.277,-4.276l8.553,-0c2.36,-0 4.276,1.916 4.276,4.276Z" style="fill:#fff;"/></g><g><path d="M237.692,87.587l-0,80.826c-0,2.36 -1.916,4.276 -4.277,4.276l-8.553,0c-2.36,0 -4.276,-1.916 -4.276,-4.276l-0,-80.826c-0,-2.36 1.916,-4.276 4.276,-4.276l8.553,-0c2.361,-0 4.277,1.916 4.277,4.276Z" style="fill:#fff;stroke:#000;stroke-width:33.33px;"/><path d="M237.692,87.587l-0,80.826c-0,2.36 -1.916,4.276 -4.277,4.276l-8.553,0c-2.36,0 -4.276,-1.916 -4.276,-4.276l-0,-80.826c-0,-2.36 1.916,-4.276 4.276,-4.276l8.553,-0c2.361,-0 4.277,1.916 4.277,4.276Z" style="fill:#fff;"/></g><g><path d="M136.553,87.587l-0,80.826c-0,2.36 -1.916,4.276 -4.277,4.276l-8.552,0c-2.361,0 -4.277,-1.916 -4.277,-4.276l0,-80.826c0,-2.36 1.916,-4.276 4.277,-4.276l8.552,-0c2.361,-0 4.277,1.916 4.277,4.276Z" style="fill:#fff;stroke:#000;stroke-width:33.33px;"/><path d="M136.553,87.587l-0,80.826c-0,2.36 -1.916,4.276 -4.277,4.276l-8.552,0c-2.361,0 -4.277,-1.916 -4.277,-4.276l0,-80.826c0,-2.36 1.916,-4.276 4.277,-4.276l8.552,-0c2.361,-0 4.277,1.916 4.277,4.276Z" style="fill:#fff;"/></g><g><ellipse cx="77.324" cy="128.214" rx="25.017" ry="45.117" style="fill:#fff;stroke:#000;stroke-width:33.33px;"/><ellipse cx="77.324" cy="128.214" rx="25.017" ry="45.117" style="fill:#fff;"/><ellipse cx="77.189" cy="128.462" rx="8.283" ry="29.217"/></g><g><ellipse cx="178.676" cy="128" rx="25.017" ry="45.117" style="fill:#fff;stroke:#000;stroke-width:33.33px;"/><ellipse cx="178.676" cy="128" rx="25.017" ry="45.117" style="fill:#fff;"/><ellipse cx="178.456" cy="127.367" rx="8.283" ry="29.217"/></g></g></svg>