<?xml version="1.0" encoding="UTF-8" standalone="no"?><!DOCTYPE svg PUBLIC "-//W3C//DTD SVG 1.1//EN" "http://www.w3.org/Graphics/SVG/1.1/DTD/svg11.dtd"><svg width="100%" height="100%" viewBox="0 0 62 62" version="1.1" xmlns="http://www.w3.org/2000/svg" xmlns:xlink="http://www.w3.org/1999/xlink" xml:space="preserve" xmlns:serif="http://www.serif.com/" style="fill-rule:evenodd;clip-rule:evenodd;stroke-linejoin:round;stroke-miterlimit:2;"><path d="M61.32,13.584l0,34.272c0,7.431 -6.033,13.464 -13.464,13.464l-34.272,0c-7.431,0 -13.464,-6.033 -13.464,-13.464l-0,-34.272c-0,-7.431 6.033,-13.464 13.464,-13.464l34.272,0c7.431,0 13.464,6.033 13.464,13.464Z" style="fill:#1c3f95;"/><path d="M44.826,28.467l3.827,-4.605l-8.817,-15.543l-18.795,0l-8.816,15.543l3.826,4.605l28.775,0Zm-9.266,-15.542l6.227,10.937l-22.697,0l6.19,-10.937l10.28,-0Z" style="fill:#fff;fill-rule:nonzero;"/><path d="M50.44,32.644l-6.377,-0l-0,14.363l-18.683,-14.363l-8.929,-0l26.224,20.148l7.765,-0l0,-20.148Zm-37.065,9.873l-2.176,4.547l20.483,5.728l2.176,-4.548l-20.483,-5.727Z" style="fill:#fff;fill-rule:nonzero;"/></svg>